<svg xmlns="http://www.w3.org/2000/svg" viewBox="0 0 320 200" fill="none">
  <rect width="320" height="200" rx="24" fill="#F6F0FF"/>
  <path d="M96 148h128c12.1 0 21.9-9.8 21.9-21.9 0-7.2-3.6-13.8-9.5-17.8l-48.7-33.7c-4.7-3.2-11-3.2-15.7 0l-48.7 33.7c-5.9 4-9.5 10.6-9.5 17.8 0 12.1 9.8 21.9 21.9 21.9z" fill="#D7C6FF"/>
  <circle cx="160" cy="86" r="30" fill="#E9DDFF"/>
  <path d="M160 114c-9.4 0-17-7.6-17-17 0-7.6 5-13.7 10.3-20.1 2.8-3.3 5.7-6.9 6.7-10.8.9 3.9 3.8 7.5 6.7 10.8 5.3 6.4 10.3 12.5 10.3 20.1 0 9.4-7.6 17-17 17z" fill="#fff"/>
  <text x="160" y="174" text-anchor="middle" font-family="'Poppins', 'Segoe UI', sans-serif" font-size="22" fill="#6E4CB5">Aceite esencial</text>
</svg>
