<svg xmlns="http://www.w3.org/2000/svg" viewBox="0 0 120 120" fill="none">
  <defs>
    <linearGradient id="grad" x1="0" y1="0" x2="1" y2="1">
      <stop offset="0" stop-color="#5F4B8B" />
      <stop offset="1" stop-color="#9B6DF0" />
    </linearGradient>
  </defs>
  <circle cx="60" cy="60" r="58" stroke="url(#grad)" stroke-width="4" fill="#fff"/>
  <path d="M60 26c-8.5 9.8-24 21.3-24 36.5 0 11.8 9.7 21.5 24 21.5s24-9.7 24-21.5C84 47.3 68.5 35.7 60 26z" fill="url(#grad)"/>
  <path d="M60 72c-5.3 0-9.6-4.3-9.6-9.6 0-4.3 2.8-7.7 5.8-11.3 1.6-1.8 3.3-3.7 3.8-5.8.5 2.1 2.2 4.1 3.8 5.8 3 3.6 5.8 7 5.8 11.3 0 5.3-4.3 9.6-9.6 9.6z" fill="#fff"/>
  <text x="60" y="102" text-anchor="middle" font-family="'Poppins', 'Segoe UI', sans-serif" font-size="18" fill="#5F4B8B">Alquimia</text>
</svg>
